<svg width="13" height="13" viewBox="0 0 42 44" fill="none" xmlns="http://www.w3.org/2000/svg">
<path d="M21.4123 43.2764L0.962569 31.3916L0.911133 12.5095L21.3506 24.3944L21.402 43.2764H21.4123Z" fill="url(#paint0_linear_3851_1579)"/>
<path d="M21.361 24.3944L0.921509 12.5095L21.4227 0.665771L41.8621 12.5506L21.361 24.3944Z" fill="#86C7F7"/>
<path fill-rule="evenodd" clip-rule="evenodd" d="M21.8344 7.10721L20.6514 7.24098L20.4765 7.31302H20.2914L20.1268 7.38506L19.201 7.60114L19.0673 7.66287H18.9438L18.8307 7.75548L17.1231 8.39345L17.0408 8.46549C16.2693 8.76389 15.6418 9.18579 14.9732 9.53565L14.9012 9.61795C14.2943 9.95752 14.0886 10.1325 13.6668 10.5441L13.5639 10.6161L13.1422 11.182L13.0599 11.2541L12.9159 11.5422L12.8439 11.6245C12.3604 12.7255 12.3707 12.9004 12.4736 14.1867L12.5559 14.3205V14.4542L12.6176 14.5674L12.7719 14.9687L12.8439 15.0613L12.9159 15.2671L12.9982 15.3392C13.2451 15.7816 13.5434 16.1315 13.8417 16.4505C14.0063 16.6357 14.7058 17.2016 14.9835 17.3457L15.0555 17.428C15.6213 17.6956 16.0327 18.0351 16.7425 18.2821L16.8351 18.3438L18.2135 18.776L18.3678 18.848C18.841 18.8995 19.345 19.0435 19.8696 19.1053C20.4457 19.1773 20.7543 18.8995 21.2274 18.6937L21.32 18.6216H21.3817L21.4743 18.5496L23.6654 17.5412L23.758 17.4692H23.8197L23.9122 17.3971L25.1775 16.8003L25.0643 16.7489C24.3237 16.718 23.4494 16.8312 22.647 16.8106C21.8446 16.7901 21.0937 16.646 20.3634 16.6048L20.2091 16.5328C19.6742 16.4813 19.1393 16.255 18.6867 16.1006L18.5838 16.0389C17.8432 15.7714 17.1642 15.1848 16.8351 14.588C16.331 13.6208 16.6396 12.9107 17.0305 12.0978L17.1128 12.0258L17.1848 11.8921L17.2671 11.82C17.6683 11.2541 18.6352 10.472 19.6022 10.1633L19.705 10.1016L20.7234 9.81346L20.8674 9.74146H21.0217L21.176 9.66942L21.8549 9.60768C22.0195 9.50479 22.1018 9.51508 22.3384 9.51508H23.9122C24.1591 9.51508 24.3751 9.51508 24.55 9.60768L25.4655 9.73116L25.5787 9.81346C26.1341 9.89578 26.5971 10.2045 27.0702 10.3794L27.1525 10.4514L27.4405 10.5852L27.5126 10.6675C28.0063 10.9248 28.8807 11.7274 29.0658 12.3654L29.1276 12.4683C29.3333 13.1886 29.2819 13.4252 29.1276 14.1352L29.0658 14.269L28.8087 14.8247L29.1893 14.6703L29.2716 14.5983L32.3061 13.0342L32.3884 12.9622L33.1085 12.6021L33.1908 12.53L33.9108 12.1699L33.9931 12.0876C34.024 11.9332 33.0879 11.1614 32.8822 10.9659L32.8101 10.8631C32.5633 10.6573 32.2135 10.3485 31.9255 10.1736L31.8535 10.0913C31.5655 9.92667 31.3186 9.66942 31.0408 9.53565L30.9688 9.45334L30.2385 9.03145L30.1665 8.94911L29.2098 8.45522L29.1173 8.38318L27.8932 7.87895L27.7903 7.81722L27.0497 7.61144L26.9365 7.5291H26.8028L26.6588 7.46736H26.525L26.3913 7.38506C25.7844 7.32332 25.1261 7.12781 24.4472 7.06607C23.6345 6.99404 22.8424 7.08664 22.1121 7.0249L21.8241 7.09694L21.8344 7.10721Z" fill="url(#paint1_linear_3851_1579)"/>
<path d="M21.3608 24.3945L21.4123 43.2766L31.2565 37.5965V18.6733L21.3608 24.3945Z" fill="#A9DCFC"/>
<path d="M41.9135 31.4429L41.8621 12.5505L32.0178 18.2409V37.1538L41.9135 31.4429Z" fill="#A9DCFC"/>
<path d="M32.0178 18.241L31.2566 18.6732V37.5963L32.0178 37.1539V18.241Z" fill="#A9DCFC"/>
<path d="M32.0178 18.241L31.2566 18.6732V37.5963L32.0178 37.1539V18.241Z" fill="url(#paint2_linear_3851_1579)"/>
<defs>
<linearGradient id="paint0_linear_3851_1579" x1="1.98094" y1="27.6563" x2="18.2235" y2="28.0676" gradientUnits="userSpaceOnUse">
<stop stop-color="#0086FD"/>
<stop offset="1" stop-color="#21AFFF"/>
</linearGradient>
<linearGradient id="paint1_linear_3851_1579" x1="12.4016" y1="13.0754" x2="34.0137" y2="13.0754" gradientUnits="userSpaceOnUse">
<stop stop-color="#0086FD"/>
<stop offset="1" stop-color="#21AFFF"/>
</linearGradient>
<linearGradient id="paint2_linear_3851_1579" x1="31.2566" y1="27.9135" x2="32.0178" y2="27.9135" gradientUnits="userSpaceOnUse">
<stop stop-color="#0086FD"/>
<stop offset="1" stop-color="#21AFFF"/>
</linearGradient>
</defs>
</svg>
